<svg width="327" height="278" viewBox="0 0 327 278" fill="none" xmlns="http://www.w3.org/2000/svg">
<path d="M256.5 119.7C269.549 119.7 282.063 114.516 291.29 105.29C300.516 96.0629 305.7 83.5487 305.7 70.5C305.7 57.4513 300.516 44.9371 291.29 35.7103C282.063 26.4836 269.549 21.3 256.5 21.3M256.5 119.7C243.451 119.7 230.937 114.516 221.71 105.29C212.484 96.0629 207.3 83.5487 207.3 70.5M256.5 119.7V132M256.5 21.3C243.451 21.3 230.937 26.4836 221.71 35.7103C212.484 44.9371 207.3 57.4513 207.3 70.5M256.5 21.3V9M207.3 70.5H195M268.8 70.5C268.8 73.7622 267.504 76.8907 265.197 79.1974C262.891 81.5041 259.762 82.8 256.5 82.8C253.238 82.8 250.109 81.5041 247.803 79.1974C245.496 76.8907 244.2 73.7622 244.2 70.5C244.2 67.2378 245.496 64.1093 247.803 61.8026C250.109 59.4959 253.238 58.2 256.5 58.2C259.762 58.2 262.891 59.4959 265.197 61.8026C267.504 64.1093 268.8 67.2378 268.8 70.5ZM268.8 70.5H318M287.25 123.759L281.1 113.119M250.35 59.861L225.75 17.2415M309.759 101.25L299.12 95.1M203.241 39.75L213.88 45.9M309.759 39.75L299.12 45.9M203.241 101.25L213.88 95.1M287.25 17.2415L281.1 27.881M250.35 81.1394L225.75 123.759" stroke="#008EFF" stroke-opacity="0.19" stroke-width="17" stroke-linecap="round" stroke-linejoin="round"/>
<path d="M76.9808 212.554C84.9578 207.912 90.764 200.291 93.1219 191.367C95.4799 182.444 94.1965 172.95 89.5541 164.973C84.9118 156.996 77.2907 151.19 68.3675 148.832C59.4442 146.474 49.9497 147.757 41.9727 152.399M76.9808 212.554C69.0038 217.197 59.5093 218.48 50.5861 216.122C41.6628 213.764 34.0418 207.958 29.3994 199.981M76.9808 212.554L81.3568 220.074M41.9727 152.399C33.9957 157.042 28.1896 164.663 25.8316 173.586C23.4737 182.509 24.757 192.004 29.3994 199.981M41.9727 152.399L37.5967 144.88M29.3994 199.981L21.8801 204.357M66.9961 178.101C68.1567 180.095 68.4775 182.469 67.8881 184.699C67.2986 186.93 65.847 188.836 63.8528 189.996C61.8585 191.157 59.4849 191.478 57.2541 190.888C55.0233 190.299 53.118 188.847 51.9574 186.853C50.7968 184.859 50.476 182.485 51.0655 180.254C51.655 178.023 53.1065 176.118 55.1008 174.957C57.095 173.797 59.4686 173.476 61.6994 174.066C63.9303 174.655 65.8355 176.107 66.9961 178.101ZM66.9961 178.101L97.0735 160.597M97.2231 204.095L89.6782 199.779M51.932 178.161L21.7305 160.858M102.976 182.327L94.2835 182.352M15.9779 182.627L24.6701 182.601M81.0957 144.73L76.7795 152.275M37.8579 220.223L42.1741 212.678M59.3272 138.978L59.3528 147.671M59.5023 191.169L59.6265 225.976" stroke="#008EFF" stroke-opacity="0.19" stroke-width="11" stroke-linecap="round" stroke-linejoin="round"/>
<rect x="154.197" y="57.3827" width="116.651" height="117.762" rx="6" transform="rotate(2.80345 154.197 57.3827)" fill="#0F1D38"/>
<path d="M153.903 63.3755C154.065 60.0658 156.88 57.5141 160.19 57.6762L264.716 62.7946C268.026 62.9567 270.577 65.7712 270.415 69.0809L270.002 77.5134L153.49 71.808L153.903 63.3755Z" fill="#27324D"/>
<rect x="161.692" y="63.3112" width="4.44387" height="4.44387" rx="2.22193" transform="rotate(2.80345 161.692 63.3112)" fill="#C53A3A"/>
<rect x="177.227" y="64.072" width="4.44387" height="4.44387" rx="2.22193" transform="rotate(2.80345 177.227 64.072)" fill="#51C56A"/>
<path d="M169.351 65.9109C169.411 64.6852 170.454 63.7402 171.679 63.8003V63.8003C172.905 63.8603 173.85 64.9025 173.79 66.1282V66.1282C173.73 67.3539 172.688 68.2988 171.462 68.2388V68.2388C170.236 68.1788 169.291 67.1365 169.351 65.9109V65.9109Z" fill="#FFDE6A"/>
<rect x="171.811" y="83.8281" width="82.2115" height="15.5535" rx="7.77677" transform="rotate(2.80345 171.811 83.8281)" fill="#4D6071"/>
<path d="M186.753 96.1554L184.012 93.1326C184.487 92.5764 184.764 91.8814 184.8 91.138C184.844 90.248 184.537 89.3966 183.94 88.7367C183.343 88.0767 182.523 87.6896 181.634 87.646C180.746 87.6025 179.892 87.9089 179.233 88.5062C178.573 89.1034 178.186 89.922 178.143 90.8119C178.099 91.7007 178.405 92.5544 179.003 93.2132C179.6 93.8731 180.419 94.2603 181.308 94.3038C182.052 94.3402 182.769 94.1329 183.369 93.7151L186.11 96.7369C186.118 96.7457 186.128 96.7529 186.139 96.758C186.149 96.7632 186.161 96.7661 186.173 96.7667C186.185 96.7673 186.197 96.7655 186.208 96.7615C186.22 96.7574 186.23 96.7512 186.239 96.7432L186.746 96.2842C186.755 96.2761 186.762 96.2664 186.767 96.2556C186.773 96.2448 186.775 96.2331 186.776 96.2211C186.777 96.2092 186.775 96.1972 186.771 96.1859C186.767 96.1747 186.761 96.1643 186.753 96.1554V96.1554ZM183.143 92.8187C182.65 93.265 182.013 93.493 181.35 93.4605C180.686 93.428 180.075 93.1389 179.628 92.6465C179.181 92.1531 178.953 91.5168 178.986 90.8532C179.018 90.1897 179.307 89.5776 179.8 89.1312C180.293 88.6849 180.93 88.4569 181.593 88.4894C182.257 88.5219 182.869 88.8099 183.315 89.3034C183.762 89.7968 183.99 90.4331 183.957 91.0967C183.925 91.7602 183.635 92.3723 183.143 92.8187Z" fill="white" fill-opacity="0.88"/>
<rect x="163.686" y="113.462" width="9.9987" height="9.9987" rx="2" transform="rotate(2.80345 163.686 113.462)" fill="url(#paint0_linear_14_324)"/>
<rect x="179.221" y="114.223" width="69.9909" height="3.3329" rx="1.66645" transform="rotate(2.80345 179.221 114.223)" fill="white"/>
<rect x="178.895" y="120.881" width="31.1071" height="3.3329" rx="1.66645" transform="rotate(2.80345 178.895 120.881)" fill="url(#paint1_linear_14_324)"/>
<rect x="162.436" y="138.984" width="9.9987" height="9.9987" rx="2" transform="rotate(2.80345 162.436 138.984)" fill="url(#paint2_linear_14_324)"/>
<rect x="177.971" y="139.745" width="69.9909" height="3.3329" rx="1.66645" transform="rotate(2.80345 177.971 139.745)" fill="white"/>
<rect x="177.645" y="146.402" width="31.1071" height="3.3329" rx="1.66645" transform="rotate(2.80345 177.645 146.402)" fill="url(#paint3_linear_14_324)"/>
<rect x="158.884" y="108.166" width="103.431" height="20.1084" transform="rotate(2.80345 158.884 108.166)" stroke="url(#paint4_linear_14_324)"/>
<g clip-path="url(#clip0_14_324)">
<g filter="url(#filter0_d_14_324)">
<path d="M258.792 64.4038C259.773 64.7593 260.855 64.7104 261.8 64.2679C262.745 63.8255 263.476 63.0257 263.831 62.0446C264.571 60.0025 264.164 58.817 263.96 57.0692C263.522 53.3234 265.801 50.9502 270.136 49.2627C269.535 53.2302 270.468 57.5857 272.57 61.0255C274.672 64.4652 275.133 67.8128 274.061 70.7724C273.568 72.1326 272.813 73.3825 271.837 74.4507C270.861 75.5188 269.684 76.3843 268.374 76.9977C267.064 77.6112 265.645 77.9605 264.2 78.0258C262.755 78.0911 261.311 77.871 259.95 77.3783C258.59 76.8855 257.34 76.1296 256.272 75.1538C255.204 74.178 254.338 73.0013 253.725 71.691C253.112 70.3807 252.762 68.9624 252.697 67.5171C252.632 66.0718 252.852 64.6278 253.345 63.2675C253.963 61.5613 255.215 60.105 256.432 59.3643C256.077 60.3454 256.126 61.4276 256.568 62.3727C257.011 63.3178 257.811 64.0484 258.792 64.4038Z" fill="url(#paint5_linear_14_324)"/>
<path d="M258.792 64.4038C259.773 64.7593 260.855 64.7104 261.8 64.2679C262.745 63.8255 263.476 63.0257 263.831 62.0446C264.571 60.0025 264.164 58.817 263.96 57.0692C263.522 53.3234 265.801 50.9502 270.136 49.2627C269.535 53.2302 270.468 57.5857 272.57 61.0255C274.672 64.4652 275.133 67.8128 274.061 70.7724C273.568 72.1326 272.813 73.3825 271.837 74.4507C270.861 75.5188 269.684 76.3843 268.374 76.9977C267.064 77.6112 265.645 77.9605 264.2 78.0258C262.755 78.0911 261.311 77.871 259.95 77.3783C258.59 76.8855 257.34 76.1296 256.272 75.1538C255.204 74.178 254.338 73.0013 253.725 71.691C253.112 70.3807 252.762 68.9624 252.697 67.5171C252.632 66.0718 252.852 64.6278 253.345 63.2675C253.963 61.5613 255.215 60.105 256.432 59.3643C256.077 60.3454 256.126 61.4276 256.568 62.3727C257.011 63.3178 257.811 64.0484 258.792 64.4038Z" stroke="white" stroke-width="2" stroke-linecap="round" stroke-linejoin="round"/>
</g>
</g>
<g filter="url(#filter1_d_14_324)">
<path d="M32.9665 43.2883C32.4869 40.0095 34.7561 36.9627 38.0349 36.4831L134.479 22.3756C137.758 21.896 140.805 24.1652 141.285 27.444L160.412 158.207C160.892 161.486 158.623 164.533 155.344 165.012L58.8992 179.12C55.6204 179.599 52.5736 177.33 52.094 174.051L32.9665 43.2883Z" fill="white"/>
<path d="M129.712 145.394L133.875 141.441C134.278 141.054 134.179 140.378 133.683 140.13L128.562 137.527C127.969 137.236 127.292 137.721 127.387 138.373L128.345 144.92C128.44 145.572 129.228 145.843 129.712 145.394ZM135.321 136.448L136.498 144.492C136.563 144.934 136.977 145.243 137.42 145.178C137.862 145.114 138.171 144.699 138.107 144.256L136.93 136.213C136.865 135.771 136.45 135.462 136.008 135.526C135.566 135.591 135.257 136.006 135.321 136.448Z" fill="#0690FE"/>
<path d="M54.5071 134.737L54.5809 135.242L53.2596 135.435L53.1857 134.93L54.5071 134.737ZM56.5216 134.442L56.5954 134.947L55.2741 135.14L55.2002 134.635L56.5216 134.442ZM57.4916 135.778C57.4775 135.681 57.4986 135.595 57.5549 135.52C57.6113 135.444 57.6959 135.398 57.8086 135.381C57.9213 135.365 58.0155 135.385 58.0912 135.441C58.1669 135.498 58.2118 135.574 58.226 135.671C58.2399 135.766 58.2186 135.851 58.1623 135.927C58.1056 136.001 58.021 136.046 57.9082 136.063C57.7955 136.079 57.7014 136.06 57.626 136.005C57.5503 135.949 57.5055 135.873 57.4916 135.778ZM57.1975 133.751C57.1834 133.654 57.2045 133.568 57.2609 133.493C57.3173 133.417 57.4018 133.371 57.5145 133.354C57.6273 133.338 57.7215 133.358 57.7972 133.414C57.8729 133.47 57.9178 133.547 57.9319 133.644C57.9458 133.739 57.9246 133.824 57.8682 133.9C57.8116 133.974 57.7269 134.019 57.6142 134.035C57.5015 134.052 57.4074 134.033 57.3319 133.978C57.2562 133.922 57.2114 133.846 57.1975 133.751ZM60.0819 133.921L60.1558 134.426L58.8344 134.619L58.7606 134.115L60.0819 133.921ZM62.0964 133.627L62.1703 134.131L60.8489 134.325L60.7751 133.82L62.0964 133.627Z" fill="#0690FE"/>
<path d="M137.086 122.657L137.16 123.162L135.839 123.356L135.765 122.851L137.086 122.657ZM139.101 122.363L139.175 122.868L137.853 123.061L137.779 122.556L139.101 122.363ZM140.071 123.699C140.057 123.602 140.078 123.516 140.134 123.44C140.19 123.365 140.275 123.319 140.388 123.302C140.5 123.286 140.595 123.305 140.67 123.362C140.746 123.418 140.791 123.495 140.805 123.591C140.819 123.686 140.798 123.772 140.741 123.847C140.685 123.921 140.6 123.967 140.487 123.983C140.375 124 140.281 123.981 140.205 123.926C140.129 123.869 140.085 123.794 140.071 123.699ZM139.777 121.672C139.763 121.575 139.784 121.489 139.84 121.413C139.896 121.337 139.981 121.291 140.094 121.275C140.206 121.258 140.301 121.278 140.376 121.335C140.452 121.391 140.497 121.468 140.511 121.564C140.525 121.659 140.504 121.745 140.447 121.82C140.391 121.894 140.306 121.94 140.193 121.956C140.081 121.973 139.987 121.953 139.911 121.899C139.835 121.842 139.791 121.767 139.777 121.672ZM142.661 121.842L142.735 122.347L141.414 122.54L141.34 122.035L142.661 121.842ZM144.676 121.547L144.749 122.052L143.428 122.245L143.354 121.741L144.676 121.547Z" fill="#727272"/>
<path d="M70.03 146.273C70.3741 146.222 70.6968 146.463 70.7471 146.807L71.6622 153.063C71.7126 153.407 71.4722 153.729 71.1281 153.78C70.7841 153.83 70.4614 153.59 70.411 153.246L69.4959 146.99C69.4456 146.646 69.6859 146.323 70.03 146.273ZM72.9438 150.204L76.926 152.222C77.3819 152.456 77.9135 152.072 77.8394 151.565L77.0945 146.473C77.0204 145.966 76.4081 145.755 76.031 146.104L72.7937 149.178C72.4737 149.481 72.5506 150.006 72.9438 150.204Z" fill="#0690FE"/>
<line x1="59.4982" y1="125.022" x2="139.275" y2="113.352" stroke="#F2F2F2" stroke-width="5" stroke-linecap="round"/>
<line x1="59.4982" y1="125.022" x2="100.666" y2="119" stroke="url(#paint6_linear_14_324)" stroke-width="5" stroke-linecap="round"/>
<path d="M99.2618 137.255L109.555 141.313L109.567 141.391C110.12 141.612 110.606 141.974 110.975 142.442C111.344 142.91 111.584 143.466 111.67 144.056C111.756 144.645 111.686 145.247 111.466 145.801C111.247 146.355 110.885 146.841 110.418 147.211L101.718 154.047C101.25 154.417 100.693 154.657 100.103 154.745C99.2113 154.875 98.3043 154.646 97.5816 154.108C96.8588 153.569 96.3795 152.766 96.2491 151.874L94.65 140.942C94.5565 140.35 94.6215 139.744 94.8384 139.184C95.0552 138.625 95.4162 138.133 95.8846 137.759C96.353 137.384 96.9122 137.141 97.5054 137.052C98.0985 136.964 98.7045 137.034 99.2618 137.255Z" fill="#0690FE"/>
<rect x="46.0144" y="27.6481" width="79.1225" height="79.1225" rx="7" transform="rotate(-8.32196 46.0144 27.6481)" fill="#DBF9FE"/>
<g filter="url(#filter2_d_14_324)">
<path d="M112.151 57.6159L112.187 57.6106L112.115 57.1158L112.115 57.1119C112.074 56.8343 112.033 56.5567 111.978 56.2672C111.291 52.4431 109.763 48.9692 107.626 46.042C102.745 39.3477 94.7088 35.4925 86.275 36.7261C77.8414 37.9598 71.2341 43.9568 68.4748 51.7691L68.4746 51.7696C67.2675 55.1976 66.7966 58.951 67.2336 62.8121C67.2636 63.1054 67.3042 63.3829 67.3448 63.6605L67.3454 63.6645L69.0309 75.1876C69.7976 80.4287 74.0954 84.2656 79.1691 84.6624C79.8568 85.1358 80.773 85.3701 81.7254 85.2308C82.73 85.0838 83.5864 84.5605 84.106 83.831L84.134 83.7934L84.2574 83.6276L84.2278 83.423L81.2699 63.0216L81.2536 62.9091L81.1902 62.8147L81.1405 62.7407L81.0994 62.6794L81.0423 62.6326C80.3437 62.0599 79.3389 61.7797 78.3047 61.931C77.3358 62.0727 76.5 62.57 75.9828 63.248C74.3688 63.8637 72.9649 64.8551 71.8451 66.0753L71.8391 66.0819L71.8332 66.0887C71.8008 66.1267 71.6929 66.2551 71.5578 66.4202L71.0445 62.9111C71.0352 62.8476 71.0814 62.7863 71.1443 62.7771L71.1688 62.7735L71.4134 62.7377L71.8891 62.6681L71.8382 62.19C70.7609 52.0717 77.4239 42.9422 86.9553 41.548C96.4864 40.1538 105.473 46.9937 107.339 56.9971L107.427 57.4697L107.903 57.4001L108.184 57.359C108.247 57.3498 108.309 57.3953 108.318 57.4588L108.831 60.9627C108.829 60.9613 108.826 60.9599 108.824 60.9585L108.795 60.9393L108.697 60.8751C108.621 60.8254 108.53 60.7659 108.473 60.7292L108.465 60.7244L108.458 60.7198C107.037 59.8721 105.414 59.3382 103.699 59.1982C103.001 58.6975 102.056 58.4567 101.082 58.5992C100.05 58.7501 99.1903 59.2759 98.6615 60.0381L98.5491 60.2002L98.5776 60.3954L101.578 80.9094L101.608 81.1141L101.774 81.2378L102.073 80.837C101.774 81.2378 101.774 81.2379 101.774 81.2379L101.775 81.2381L101.775 81.2384L101.776 81.239L101.777 81.2402L101.781 81.2428L101.789 81.2483C101.794 81.2522 101.801 81.2565 101.808 81.2612C101.82 81.2689 101.837 81.2789 101.858 81.2892C102.554 81.7932 103.509 82.0444 104.478 81.9026C105.413 81.7658 106.239 81.2914 106.767 80.6249C111.513 78.7907 114.53 73.8844 113.764 68.6442L112.151 57.6159Z" fill="#0690FE" stroke="#21313F"/>
<path d="M77.5936 77.0961C77.6765 77.6629 78.1968 78.0505 78.7636 77.9675C79.3305 77.8846 79.718 77.3643 79.635 76.7975L78.735 70.6445C78.6521 70.0777 78.1318 69.6902 77.565 69.7731C76.9982 69.856 76.6107 70.3764 76.6936 70.9432L77.5936 77.0961Z" fill="white" stroke="#21313F"/>
<path d="M75.0412 76.1326C75.1241 76.6994 75.6444 77.0869 76.2112 77.004C76.7781 76.9211 77.1656 76.4008 77.0827 75.834L76.5656 72.2988C76.4826 71.732 75.9623 71.3444 75.3955 71.4273C74.8287 71.5103 74.4412 72.0306 74.5241 72.5974L75.0412 76.1326Z" fill="#00DC6A" stroke="#21313F"/>
<path d="M104.023 73.2801C104.106 73.8469 104.626 74.2344 105.193 74.1515C105.76 74.0686 106.148 73.5483 106.065 72.9815L105.165 66.8285C105.082 66.2617 104.561 65.8742 103.995 65.9571C103.428 66.04 103.04 66.5603 103.123 67.1271L104.023 73.2801Z" fill="white" stroke="#21313F"/>
<path d="M106.192 71.6259C106.275 72.1927 106.796 72.5803 107.362 72.4974C107.929 72.4145 108.317 71.8941 108.234 71.3273L107.717 67.7921C107.634 67.2253 107.114 66.8378 106.547 66.9207C105.98 67.0036 105.592 67.5239 105.675 68.0907L106.192 71.6259Z" fill="#00DC6A" stroke="#21313F"/>
</g>
</g>
<g filter="url(#filter3_d_14_324)">
<rect x="125.483" y="155" width="85.8526" height="91.4274" rx="6" transform="rotate(8.48064 125.483 155)" fill="white"/>
<path d="M124.598 160.934C125.087 157.657 128.14 155.396 131.418 155.885L204.463 166.776C207.74 167.265 210.001 170.318 209.512 173.596L206.615 193.025L121.701 180.364L124.598 160.934Z" fill="#0690FE"/>
</g>
<path d="M200.417 181.673L201.033 177.538M196.211 179.637L191.8 178.979M198.583 177.173L192.211 176.222M195.8 182.394L191.389 181.736M198.986 182.869C199.311 182.918 199.641 182.843 199.902 182.662C200.164 182.481 200.337 182.208 200.382 181.903C200.428 181.598 200.342 181.287 200.145 181.037C199.947 180.788 199.653 180.62 199.328 180.572C199.003 180.523 198.674 180.598 198.412 180.779C198.15 180.96 197.977 181.233 197.932 181.538C197.886 181.842 197.972 182.154 198.17 182.403C198.367 182.653 198.661 182.821 198.986 182.869Z" stroke="black" stroke-opacity="0.58" stroke-linecap="round" stroke-linejoin="round"/>
<rect x="177.566" y="198.839" width="16" height="16" rx="2" transform="rotate(8.48064 177.566 198.839)" fill="#43BF7F"/>
<path d="M134.579 167.708C134.604 167.679 134.634 167.668 134.67 167.673L135.364 167.776C135.384 167.779 135.398 167.79 135.408 167.807C135.422 167.822 135.427 167.839 135.424 167.858L134.826 171.87C134.823 171.89 134.813 171.906 134.795 171.92C134.781 171.93 134.764 171.933 134.744 171.931L134.05 171.827C134.03 171.824 134.013 171.815 133.999 171.801C133.99 171.784 133.987 171.765 133.99 171.745L134.38 169.128C134.382 169.112 134.379 169.104 134.371 169.103C134.364 169.101 134.355 169.106 134.345 169.117L133.569 170.008C133.545 170.037 133.515 170.049 133.479 170.043L133.129 169.991C133.093 169.986 133.068 169.966 133.053 169.931L132.571 168.852C132.565 168.839 132.557 168.834 132.549 168.837C132.541 168.836 132.536 168.843 132.533 168.859L132.144 171.47C132.141 171.49 132.13 171.506 132.112 171.52C132.099 171.53 132.082 171.534 132.062 171.531L131.368 171.427C131.348 171.424 131.331 171.416 131.317 171.401C131.308 171.384 131.304 171.365 131.307 171.345L131.905 167.334C131.908 167.314 131.917 167.299 131.93 167.289C131.948 167.275 131.967 167.27 131.987 167.273L132.682 167.377C132.717 167.382 132.742 167.402 132.758 167.436L133.441 168.952C133.45 168.977 133.462 168.979 133.477 168.957L134.579 167.708ZM137.71 169.327C137.713 169.308 137.721 169.293 137.735 169.283C137.753 169.269 137.772 169.264 137.792 169.267L138.486 169.37C138.506 169.373 138.52 169.384 138.53 169.401C138.544 169.415 138.55 169.432 138.547 169.452L138.113 172.36C138.11 172.38 138.099 172.396 138.081 172.41C138.068 172.42 138.051 172.424 138.031 172.421L137.337 172.317C137.317 172.314 137.3 172.306 137.286 172.291C137.277 172.274 137.273 172.255 137.276 172.235L137.306 172.033C137.308 172.022 137.305 172.015 137.297 172.014C137.29 172.009 137.281 172.012 137.272 172.022C137.082 172.212 136.82 172.283 136.488 172.233C136.187 172.188 135.954 172.06 135.787 171.849C135.62 171.638 135.561 171.369 135.61 171.04L135.906 169.058C135.909 169.039 135.917 169.024 135.931 169.014C135.949 169 135.968 168.995 135.988 168.998L136.676 169.1C136.696 169.103 136.71 169.114 136.72 169.131C136.734 169.145 136.74 169.163 136.737 169.182L136.472 170.957C136.448 171.115 136.471 171.25 136.539 171.361C136.611 171.473 136.723 171.54 136.873 171.562C137.008 171.582 137.124 171.559 137.223 171.493C137.323 171.423 137.392 171.324 137.431 171.197L137.71 169.327ZM139.929 172.746C139.664 172.707 139.439 172.635 139.252 172.53C139.065 172.425 138.927 172.297 138.836 172.146C138.749 171.996 138.719 171.836 138.744 171.665L138.753 171.606C138.756 171.586 138.764 171.571 138.778 171.561C138.796 171.548 138.815 171.543 138.835 171.546L139.493 171.644C139.513 171.647 139.528 171.657 139.537 171.675C139.551 171.689 139.557 171.706 139.554 171.726L139.553 171.732C139.54 171.819 139.576 171.901 139.662 171.978C139.752 172.052 139.87 172.1 140.016 172.122C140.151 172.142 140.264 172.133 140.354 172.094C140.446 172.051 140.497 171.99 140.509 171.91C140.52 171.839 140.492 171.781 140.426 171.734C140.36 171.688 140.249 171.633 140.093 171.569C139.914 171.494 139.774 171.427 139.674 171.367C139.434 171.243 139.248 171.106 139.116 170.957C138.985 170.808 138.937 170.614 138.972 170.377C139.016 170.084 139.163 169.87 139.414 169.733C139.67 169.593 139.985 169.551 140.361 169.607C140.614 169.645 140.83 169.72 141.007 169.831C141.185 169.939 141.315 170.073 141.396 170.235C141.481 170.397 141.509 170.571 141.482 170.757C141.479 170.777 141.468 170.794 141.45 170.807C141.436 170.817 141.42 170.821 141.4 170.818L140.765 170.723C140.745 170.72 140.728 170.712 140.714 170.697C140.705 170.68 140.701 170.661 140.704 170.641C140.717 170.554 140.683 170.474 140.601 170.401C140.522 170.329 140.41 170.282 140.264 170.26C140.133 170.241 140.023 170.249 139.933 170.284C139.842 170.319 139.791 170.378 139.779 170.461C139.767 170.54 139.798 170.605 139.871 170.657C139.948 170.709 140.078 170.77 140.262 170.842C140.304 170.861 140.351 170.882 140.404 170.906C140.458 170.926 140.515 170.951 140.575 170.98C140.843 171.105 141.049 171.245 141.192 171.4C141.335 171.554 141.387 171.756 141.35 172.006C141.307 172.298 141.156 172.51 140.897 172.642C140.644 172.77 140.321 172.805 139.929 172.746ZM142.655 169.64C142.521 169.62 142.414 169.56 142.336 169.459C142.263 169.355 142.236 169.236 142.256 169.101C142.277 168.963 142.337 168.857 142.437 168.783C142.537 168.709 142.656 168.682 142.795 168.702C142.933 168.723 143.04 168.783 143.114 168.883C143.188 168.983 143.214 169.103 143.194 169.241C143.174 169.376 143.111 169.482 143.007 169.559C142.907 169.633 142.79 169.66 142.655 169.64ZM141.793 172.981C141.773 172.979 141.756 172.97 141.742 172.956C141.733 172.938 141.729 172.919 141.732 172.9L142.167 169.986C142.17 169.966 142.178 169.951 142.192 169.941C142.21 169.928 142.229 169.922 142.249 169.925L142.943 170.029C142.963 170.032 142.977 170.042 142.987 170.06C143.001 170.074 143.006 170.091 143.003 170.111L142.569 173.024C142.566 173.044 142.555 173.061 142.537 173.074C142.524 173.084 142.507 173.088 142.487 173.085L141.793 172.981ZM144.545 173.44C144.228 173.393 143.965 173.273 143.755 173.08C143.549 172.887 143.417 172.645 143.36 172.354C143.322 172.146 143.323 171.907 143.363 171.638C143.403 171.373 143.471 171.149 143.567 170.965C143.702 170.71 143.898 170.523 144.154 170.404C144.411 170.284 144.697 170.248 145.014 170.295C145.33 170.342 145.595 170.463 145.809 170.656C146.027 170.851 146.157 171.074 146.2 171.327C146.218 171.427 146.223 171.501 146.216 171.548L146.214 171.56C146.209 171.596 146.186 171.614 146.145 171.616L145.448 171.616L145.436 171.614C145.4 171.608 145.379 171.585 145.373 171.544L145.37 171.446C145.357 171.339 145.309 171.245 145.224 171.164C145.139 171.082 145.031 171.032 144.901 171.012C144.774 170.993 144.662 171.009 144.566 171.059C144.469 171.11 144.395 171.188 144.343 171.293C144.282 171.405 144.236 171.564 144.205 171.77C144.175 171.976 144.17 172.141 144.192 172.265C144.21 172.389 144.257 172.492 144.334 172.572C144.415 172.653 144.519 172.703 144.646 172.721C144.768 172.74 144.88 172.724 144.98 172.674C145.085 172.621 145.164 172.54 145.217 172.43C145.222 172.423 145.226 172.412 145.228 172.396C145.233 172.392 145.236 172.387 145.237 172.379C145.248 172.332 145.278 172.316 145.329 172.332L145.995 172.54C146.034 172.554 146.05 172.579 146.045 172.615C146.04 172.646 146.019 172.704 145.983 172.787C145.86 173.04 145.667 173.223 145.403 173.338C145.143 173.453 144.857 173.487 144.545 173.44ZM150.425 172.054C150.4 172.063 150.398 172.075 150.42 172.09C150.767 172.34 150.907 172.69 150.839 173.141C150.782 173.525 150.608 173.796 150.318 173.955C150.028 174.11 149.671 174.156 149.248 174.093L147.711 173.864C147.691 173.861 147.674 173.852 147.66 173.838C147.65 173.82 147.647 173.802 147.65 173.782L148.248 169.77C148.251 169.751 148.259 169.736 148.273 169.726C148.291 169.712 148.31 169.707 148.33 169.71L149.819 169.932C150.757 170.072 151.169 170.521 151.056 171.281C150.997 171.677 150.787 171.934 150.425 172.054ZM149.018 170.546C148.998 170.543 148.987 170.552 148.984 170.572L148.846 171.497C148.843 171.517 148.851 171.529 148.871 171.532L149.566 171.635C149.751 171.663 149.902 171.641 150.018 171.569C150.134 171.497 150.203 171.386 150.226 171.236C150.249 171.082 150.215 170.953 150.125 170.851C150.036 170.745 149.898 170.678 149.712 170.65L149.018 170.546ZM149.356 173.369C149.537 173.396 149.687 173.372 149.803 173.296C149.92 173.217 149.991 173.096 150.015 172.934C150.039 172.771 150.007 172.637 149.917 172.531C149.829 172.42 149.691 172.351 149.505 172.324L148.769 172.214C148.75 172.211 148.738 172.219 148.735 172.239L148.588 173.224C148.586 173.244 148.594 173.255 148.614 173.258L149.356 173.369ZM152.606 174.642C152.274 174.593 152.002 174.463 151.79 174.254C151.579 174.044 151.452 173.783 151.41 173.469C151.382 173.275 151.385 173.069 151.417 172.851C151.452 172.618 151.511 172.412 151.594 172.235C151.729 171.956 151.927 171.751 152.189 171.62C152.451 171.489 152.749 171.448 153.081 171.498C153.405 171.546 153.67 171.671 153.875 171.871C154.08 172.068 154.208 172.319 154.259 172.626C154.293 172.833 154.294 173.046 154.261 173.263C154.23 173.477 154.172 173.673 154.089 173.85C153.956 174.146 153.757 174.365 153.494 174.508C153.234 174.647 152.938 174.692 152.606 174.642ZM152.713 173.924C152.844 173.944 152.96 173.921 153.063 173.855C153.166 173.79 153.247 173.691 153.308 173.558C153.358 173.436 153.395 173.3 153.417 173.15C153.442 172.983 153.447 172.841 153.432 172.721C153.409 172.58 153.357 172.465 153.277 172.377C153.198 172.288 153.093 172.234 152.962 172.214C152.827 172.194 152.709 172.215 152.607 172.277C152.509 172.339 152.43 172.434 152.37 172.563C152.324 172.653 152.288 172.791 152.26 172.977C152.233 173.155 152.226 173.296 152.239 173.399C152.258 173.543 152.307 173.662 152.387 173.754C152.47 173.848 152.579 173.904 152.713 173.924ZM156.248 171.97C156.505 172.009 156.728 172.088 156.916 172.209C157.105 172.326 157.243 172.47 157.331 172.641C157.422 172.813 157.454 172.993 157.426 173.183L157.126 175.195C157.123 175.215 157.112 175.231 157.094 175.245C157.08 175.255 157.064 175.258 157.044 175.256L156.35 175.152C156.33 175.149 156.313 175.14 156.299 175.126C156.289 175.109 156.286 175.09 156.289 175.07L156.318 174.874C156.32 174.862 156.317 174.854 156.31 174.849C156.303 174.844 156.294 174.846 156.284 174.857C156.086 175.05 155.802 175.119 155.435 175.064C155.126 175.018 154.888 174.906 154.72 174.727C154.553 174.548 154.491 174.313 154.535 174.02C154.58 173.715 154.722 173.496 154.96 173.362C155.199 173.223 155.517 173.184 155.912 173.243L156.518 173.333C156.537 173.336 156.549 173.327 156.552 173.308L156.571 173.177C156.591 173.047 156.566 172.94 156.498 172.857C156.43 172.77 156.317 172.714 156.158 172.691C156.036 172.673 155.93 172.679 155.84 172.71C155.755 172.742 155.694 172.796 155.658 172.871C155.64 172.913 155.611 172.929 155.572 172.919L154.869 172.717C154.822 172.702 154.803 172.681 154.811 172.654C154.852 172.49 154.939 172.349 155.074 172.232C155.213 172.115 155.383 172.033 155.584 171.986C155.789 171.94 156.01 171.935 156.248 171.97ZM155.753 174.475C155.923 174.5 156.074 174.476 156.207 174.403C156.339 174.329 156.416 174.222 156.437 174.079L156.469 173.865C156.472 173.846 156.463 173.834 156.443 173.831L156.016 173.768C155.838 173.741 155.693 173.754 155.58 173.806C155.471 173.858 155.407 173.946 155.389 174.068C155.373 174.175 155.398 174.266 155.464 174.34C155.53 174.411 155.626 174.456 155.753 174.475ZM159.685 172.489C159.827 172.51 159.936 172.554 160.011 172.622C160.04 172.643 160.047 172.674 160.033 172.717L159.807 173.375C159.796 173.421 159.767 173.431 159.718 173.404C159.662 173.375 159.594 173.355 159.515 173.343C159.483 173.338 159.439 173.336 159.383 173.335C159.238 173.326 159.11 173.361 158.997 173.442C158.884 173.518 158.816 173.633 158.793 173.787L158.552 175.408C158.549 175.427 158.538 175.444 158.52 175.457C158.507 175.468 158.49 175.471 158.47 175.468L157.776 175.365C157.756 175.362 157.739 175.353 157.725 175.339C157.715 175.321 157.712 175.303 157.715 175.283L158.149 172.375C158.152 172.355 158.16 172.34 158.174 172.33C158.192 172.317 158.211 172.311 158.231 172.314L158.925 172.418C158.945 172.421 158.959 172.431 158.969 172.449C158.983 172.463 158.988 172.48 158.985 172.5L158.952 172.725C158.95 172.737 158.953 172.746 158.96 172.751C158.968 172.756 158.974 172.755 158.979 172.747C159.176 172.534 159.412 172.448 159.685 172.489ZM162.403 171.881C162.406 171.861 162.414 171.846 162.428 171.836C162.446 171.823 162.465 171.817 162.485 171.82L163.179 171.924C163.199 171.927 163.213 171.937 163.223 171.955C163.237 171.969 163.243 171.986 163.24 172.006L162.641 176.017C162.638 176.037 162.628 176.054 162.61 176.067C162.596 176.077 162.579 176.081 162.56 176.078L161.865 175.974C161.845 175.971 161.829 175.963 161.814 175.949C161.805 175.931 161.802 175.912 161.805 175.893L161.834 175.697C161.836 175.685 161.833 175.678 161.825 175.677C161.817 175.672 161.809 175.673 161.8 175.68C161.601 175.872 161.358 175.947 161.069 175.904C160.792 175.863 160.564 175.75 160.385 175.566C160.211 175.382 160.1 175.149 160.053 174.867C160.016 174.651 160.018 174.407 160.059 174.134C160.101 173.853 160.173 173.613 160.275 173.414C160.404 173.174 160.576 172.996 160.792 172.878C161.012 172.757 161.267 172.719 161.556 172.762C161.841 172.804 162.047 172.936 162.176 173.157C162.182 173.17 162.19 173.176 162.198 173.173C162.207 173.17 162.212 173.163 162.213 173.151L162.403 171.881ZM161.807 175.019C161.908 174.885 161.978 174.691 162.015 174.438C162.055 174.173 162.042 173.958 161.978 173.795C161.91 173.627 161.789 173.53 161.615 173.504C161.429 173.477 161.277 173.533 161.159 173.673C161.037 173.813 160.956 174.015 160.917 174.28C160.881 174.517 160.893 174.721 160.953 174.892C161.026 175.077 161.16 175.184 161.354 175.213C161.532 175.239 161.683 175.175 161.807 175.019Z" fill="#060606" fill-opacity="0.64"/>
<rect x="129.044" y="191.604" width="17.8395" height="17.8395" rx="2" transform="rotate(8.48064 129.044 191.604)" fill="#43BF7F"/>
<rect x="153.305" y="195.222" width="17.8395" height="17.8395" rx="2" transform="rotate(8.48064 153.305 195.222)" fill="#43BF7F"/>
<rect x="174.113" y="221.998" width="16" height="16" rx="2" transform="rotate(8.48064 174.113 221.998)" fill="#55B4FF"/>
<rect x="125.591" y="214.763" width="17.8395" height="17.8395" rx="2" transform="rotate(8.48064 125.591 214.763)" fill="#55B4FF"/>
<path d="M149.557 220.358C149.72 219.266 150.737 218.512 151.83 218.675L165.518 220.716C166.611 220.879 167.364 221.897 167.201 222.989L165.16 236.677C164.997 237.77 163.98 238.523 162.887 238.36L149.199 236.319C148.107 236.157 147.353 235.139 147.516 234.046L149.557 220.358Z" fill="#55B4FF"/>
<rect x="124.135" y="212.796" width="21.2994" height="21.2994" transform="rotate(8.48064 124.135 212.796)" stroke="url(#paint7_linear_14_324)"/>
<g filter="url(#filter4_d_14_324)">
<path d="M105.182 150.26C104.191 147.868 106.491 145.429 108.937 146.278L135.331 155.435C137.81 156.296 138.068 159.701 135.746 160.924L126.003 166.056C125.381 166.384 124.893 166.921 124.626 167.572L121.281 175.725C120.264 178.203 116.758 178.209 115.734 175.735L105.182 150.26Z" fill="url(#paint8_linear_14_324)"/>
<path d="M108.609 147.222L135.003 156.38C136.656 156.954 136.828 159.224 135.279 160.039L125.537 165.172C124.707 165.609 124.057 166.324 123.701 167.192L120.356 175.346C119.678 176.997 117.341 177.001 116.657 175.352L106.106 149.877C105.445 148.283 106.979 146.657 108.609 147.222Z" stroke="white" stroke-width="2"/>
</g>
<g filter="url(#filter5_d_14_324)">
<path d="M199.219 227.962C200.801 229.409 202.849 230.244 204.993 230.315C207.137 230.386 209.236 229.69 210.912 228.35C212.587 227.011 213.729 225.117 214.132 223.01C214.535 220.903 214.172 218.722 213.109 216.859C212.046 214.996 210.352 213.574 208.333 212.849C206.314 212.125 204.103 212.145 202.097 212.906C200.092 213.668 198.425 215.12 197.396 217.002C196.366 218.884 196.043 221.072 196.485 223.171L193 228.335L199.219 227.962Z" fill="url(#paint9_linear_14_324)"/>
<path d="M209.686 219.626C209.356 219.061 208.818 218.648 208.187 218.476C207.555 218.303 206.882 218.385 206.31 218.704L205.915 219.01L205.657 218.629C205.501 218.329 205.284 218.065 205.02 217.854C204.756 217.643 204.451 217.49 204.125 217.404C203.798 217.318 203.457 217.301 203.123 217.355C202.79 217.409 202.471 217.532 202.188 217.716C201.905 217.901 201.664 218.142 201.48 218.426C201.296 218.709 201.173 219.028 201.12 219.361C201.066 219.695 201.083 220.036 201.169 220.363C201.256 220.689 201.41 220.994 201.621 221.258L204.171 225.583L208.566 223.156C210.04 222.315 210.339 220.841 209.734 219.64" fill="url(#paint10_linear_14_324)"/>
<path d="M209.686 219.626C209.356 219.061 208.818 218.648 208.187 218.476C207.555 218.303 206.882 218.385 206.31 218.704L205.915 219.01L205.657 218.629C205.501 218.329 205.284 218.065 205.02 217.854C204.756 217.643 204.451 217.49 204.125 217.404C203.798 217.318 203.457 217.301 203.123 217.355C202.79 217.409 202.471 217.532 202.188 217.716C201.905 217.901 201.664 218.142 201.48 218.426C201.296 218.709 201.173 219.028 201.12 219.361C201.066 219.695 201.083 220.036 201.169 220.363C201.256 220.689 201.41 220.994 201.621 221.258L204.171 225.583L208.566 223.156C210.04 222.315 210.339 220.841 209.734 219.64M199.219 227.962C200.801 229.409 202.849 230.244 204.993 230.315C207.137 230.386 209.236 229.69 210.912 228.35C212.587 227.011 213.729 225.117 214.132 223.01C214.535 220.903 214.172 218.722 213.109 216.859C212.046 214.996 210.352 213.574 208.333 212.849C206.314 212.125 204.103 212.145 202.097 212.906C200.092 213.668 198.425 215.12 197.396 217.002C196.366 218.884 196.043 221.072 196.485 223.171L193 228.335L199.219 227.962Z" stroke="white" stroke-width="2" stroke-linecap="round" stroke-linejoin="round"/>
</g>
<defs>
<filter id="filter0_d_14_324" x="247.686" y="48.2628" width="31.9336" height="38.7742" filterUnits="userSpaceOnUse" color-interpolation-filters="sRGB">
<feFlood flood-opacity="0" result="BackgroundImageFix"/>
<feColorMatrix in="SourceAlpha" type="matrix" values="0 0 0 0 0 0 0 0 0 0 0 0 0 0 0 0 0 0 127 0" result="hardAlpha"/>
<feOffset dy="4"/>
<feGaussianBlur stdDeviation="2"/>
<feComposite in2="hardAlpha" operator="out"/>
<feColorMatrix type="matrix" values="0 0 0 0 0 0 0 0 0 0 0 0 0 0 0 0 0 0 0.25 0"/>
<feBlend mode="normal" in2="BackgroundImageFix" result="effect1_dropShadow_14_324"/>
<feBlend mode="normal" in="SourceGraphic" in2="effect1_dropShadow_14_324" result="shape"/>
</filter>
<filter id="filter1_d_14_324" x="28.9026" y="17.1348" width="135.574" height="170.049" filterUnits="userSpaceOnUse" color-interpolation-filters="sRGB">
<feFlood flood-opacity="0" result="BackgroundImageFix"/>
<feColorMatrix in="SourceAlpha" type="matrix" values="0 0 0 0 0 0 0 0 0 0 0 0 0 0 0 0 0 0 127 0" result="hardAlpha"/>
<feOffset dy="4"/>
<feGaussianBlur stdDeviation="2"/>
<feComposite in2="hardAlpha" operator="out"/>
<feColorMatrix type="matrix" values="0 0 0 0 0 0 0 0 0 0 0 0 0 0 0 0 0 0 0.25 0"/>
<feBlend mode="normal" in2="BackgroundImageFix" result="effect1_dropShadow_14_324"/>
<feBlend mode="normal" in="SourceGraphic" in2="effect1_dropShadow_14_324" result="shape"/>
</filter>
<filter id="filter2_d_14_324" x="51.6922" y="24.9584" width="78.0719" height="78.0718" filterUnits="userSpaceOnUse" color-interpolation-filters="sRGB">
<feFlood flood-opacity="0" result="BackgroundImageFix"/>
<feColorMatrix in="SourceAlpha" type="matrix" values="0 0 0 0 0 0 0 0 0 0 0 0 0 0 0 0 0 0 127 0" result="hardAlpha"/>
<feOffset dy="4"/>
<feGaussianBlur stdDeviation="2"/>
<feComposite in2="hardAlpha" operator="out"/>
<feColorMatrix type="matrix" values="0 0 0 0 0 0 0 0 0 0 0 0 0 0 0 0 0 0 0.25 0"/>
<feBlend mode="normal" in2="BackgroundImageFix" result="effect1_dropShadow_14_324"/>
<feBlend mode="normal" in="SourceGraphic" in2="effect1_dropShadow_14_324" result="shape"/>
</filter>
<filter id="filter3_d_14_324" x="108.818" y="155.818" width="104.76" height="109.452" filterUnits="userSpaceOnUse" color-interpolation-filters="sRGB">
<feFlood flood-opacity="0" result="BackgroundImageFix"/>
<feColorMatrix in="SourceAlpha" type="matrix" values="0 0 0 0 0 0 0 0 0 0 0 0 0 0 0 0 0 0 127 0" result="hardAlpha"/>
<feOffset dy="4"/>
<feGaussianBlur stdDeviation="2"/>
<feComposite in2="hardAlpha" operator="out"/>
<feColorMatrix type="matrix" values="0 0 0 0 0 0 0 0 0 0 0 0 0 0 0 0 0 0 0.25 0"/>
<feBlend mode="normal" in2="BackgroundImageFix" result="effect1_dropShadow_14_324"/>
<feBlend mode="normal" in="SourceGraphic" in2="effect1_dropShadow_14_324" result="shape"/>
</filter>
<filter id="filter4_d_14_324" x="101.646" y="146.105" width="39.0016" height="41.7814" filterUnits="userSpaceOnUse" color-interpolation-filters="sRGB">
<feFlood flood-opacity="0" result="BackgroundImageFix"/>
<feColorMatrix in="SourceAlpha" type="matrix" values="0 0 0 0 0 0 0 0 0 0 0 0 0 0 0 0 0 0 127 0" result="hardAlpha"/>
<feOffset dy="7"/>
<feGaussianBlur stdDeviation="1.65"/>
<feColorMatrix type="matrix" values="0 0 0 0 0 0 0 0 0 0 0 0 0 0 0 0 0 0 0.28 0"/>
<feBlend mode="normal" in2="BackgroundImageFix" result="effect1_dropShadow_14_324"/>
<feBlend mode="normal" in="SourceGraphic" in2="effect1_dropShadow_14_324" result="shape"/>
</filter>
<filter id="filter5_d_14_324" x="188" y="211.32" width="31.2922" height="28" filterUnits="userSpaceOnUse" color-interpolation-filters="sRGB">
<feFlood flood-opacity="0" result="BackgroundImageFix"/>
<feColorMatrix in="SourceAlpha" type="matrix" values="0 0 0 0 0 0 0 0 0 0 0 0 0 0 0 0 0 0 127 0" result="hardAlpha"/>
<feOffset dy="4"/>
<feGaussianBlur stdDeviation="2"/>
<feComposite in2="hardAlpha" operator="out"/>
<feColorMatrix type="matrix" values="0 0 0 0 0 0 0 0 0 0 0 0 0 0 0 0 0 0 0.25 0"/>
<feBlend mode="normal" in2="BackgroundImageFix" result="effect1_dropShadow_14_324"/>
<feBlend mode="normal" in="SourceGraphic" in2="effect1_dropShadow_14_324" result="shape"/>
</filter>
<linearGradient id="paint0_linear_14_324" x1="163.686" y1="114.138" x2="173.685" y2="122.786" gradientUnits="userSpaceOnUse">
<stop stop-color="#0690FE"/>
<stop offset="1" stop-color="#00DC6A"/>
</linearGradient>
<linearGradient id="paint1_linear_14_324" x1="178.895" y1="122.547" x2="210.002" y2="122.547" gradientUnits="userSpaceOnUse">
<stop stop-color="white"/>
<stop offset="1" stop-color="#636363"/>
</linearGradient>
<linearGradient id="paint2_linear_14_324" x1="162.436" y1="139.659" x2="172.435" y2="148.307" gradientUnits="userSpaceOnUse">
<stop stop-color="#0690FE"/>
<stop offset="1" stop-color="#00DC6A"/>
</linearGradient>
<linearGradient id="paint3_linear_14_324" x1="177.645" y1="148.069" x2="208.752" y2="148.069" gradientUnits="userSpaceOnUse">
<stop stop-color="white"/>
<stop offset="1" stop-color="#636363"/>
</linearGradient>
<linearGradient id="paint4_linear_14_324" x1="158.409" y1="118.197" x2="262.84" y2="118.197" gradientUnits="userSpaceOnUse">
<stop stop-color="#0690FE"/>
<stop offset="1" stop-color="#00DC6A"/>
</linearGradient>
<linearGradient id="paint5_linear_14_324" x1="270.136" y1="49.2627" x2="259.95" y2="77.3783" gradientUnits="userSpaceOnUse">
<stop stop-color="#0690FE"/>
<stop offset="1" stop-color="#00DC6A"/>
</linearGradient>
<linearGradient id="paint6_linear_14_324" x1="57.4587" y1="128.352" x2="103.574" y2="121.606" gradientUnits="userSpaceOnUse">
<stop stop-color="#045698"/>
<stop offset="1" stop-color="#0FF1FF"/>
</linearGradient>
<linearGradient id="paint7_linear_14_324" x1="134.864" y1="212.228" x2="134.864" y2="234.528" gradientUnits="userSpaceOnUse">
<stop stop-color="#0690FE"/>
<stop offset="1" stop-color="#00DC6A"/>
</linearGradient>
<linearGradient id="paint8_linear_14_324" x1="102.625" y1="144.088" x2="130.19" y2="170.08" gradientUnits="userSpaceOnUse">
<stop offset="0.245" stop-color="#008EFF"/>
<stop offset="1" stop-color="#00DC6A"/>
</linearGradient>
<linearGradient id="paint9_linear_14_324" x1="196.789" y1="214.472" x2="212.558" y2="228.874" gradientUnits="userSpaceOnUse">
<stop stop-color="#0690FE"/>
<stop offset="1" stop-color="#00DC6A"/>
</linearGradient>
<linearGradient id="paint10_linear_14_324" x1="196.789" y1="214.472" x2="212.558" y2="228.874" gradientUnits="userSpaceOnUse">
<stop stop-color="#0690FE"/>
<stop offset="1" stop-color="#00DC6A"/>
</linearGradient>
<clipPath id="clip0_14_324">
<rect width="37.7729" height="37.7729" fill="white" transform="translate(247.22 43.0289) rotate(2.80345)"/>
</clipPath>
</defs>
</svg>
